HIERARCHY
ROOT Hips
{
  OFFSET 271.188 81.2996 290.664
  CHANNELS 6 Xposition Yposition Zposition Zrotation Xrotation Yrotation
  JOINT ToSpine
  {
    OFFSET -0.0105055 1.38907 -7.13956
    CHANNELS 3 Zrotation Xrotation Yrotation
    JOINT Spine
    {
      OFFSET 0.0105055 10 1
      CHANNELS 3 Zrotation Xrotation Yrotation
      JOINT Spine1
      {
        OFFSET 0 12 1.60637
        CHANNELS 3 Zrotation Xrotation Yrotation
        JOINT Neck
        {
          OFFSET 0 27 2.26658
          CHANNELS 3 Zrotation Xrotation Yrotation
          JOINT Head
          {
            OFFSET 0 9 2.12705
            CHANNELS 3 Zrotation Xrotation Yrotation
            End Site
            {
              OFFSET 0 11 2
            }
          }
        }
        JOINT LeftShoulder
        {
          OFFSET 8 19.6109 2.86452
          CHANNELS 3 Zrotation Xrotation Yrotation
          JOINT LeftArm
          {
            OFFSET 12 1 0.681055
            CHANNELS 3 Zrotation Xrotation Yrotation
            JOINT LeftForeArm
            {
              OFFSET 19 0 -1.52608
              CHANNELS 3 Zrotation Xrotation Yrotation
              JOINT LeftHand
              {
                OFFSET 23 0 0
                CHANNELS 3 Zrotation Xrotation Yrotation
                End Site
                {
                  OFFSET 10 0 0
                }
              }
            }
          }
        }
        JOINT RightShoulder
        {
          OFFSET -8 19.6109 2.86452
          CHANNELS 3 Zrotation Xrotation Yrotation
          JOINT RightArm
          {
            OFFSET -12 1 0.681055
            CHANNELS 3 Zrotation Xrotation Yrotation
            JOINT RightForeArm
            {
              OFFSET -19 0 -1.52608
              CHANNELS 3 Zrotation Xrotation Yrotation
              JOINT RightHand
              {
                OFFSET -23 0 0
                CHANNELS 3 Zrotation Xrotation Yrotation
                End Site
                {
                  OFFSET -10 0 0
                }
              }
            }
          }
        }
      }
    }
  }
  JOINT LeftUpLeg
  {
    OFFSET 9 -7.17245 0
    CHANNELS 3 Zrotation Xrotation Yrotation
    JOINT LeftLeg
    {
      OFFSET 0 -44.1113 0
      CHANNELS 3 Zrotation Xrotation Yrotation
      JOINT LeftFoot
      {
        OFFSET 0 -36.1829 0
        CHANNELS 3 Zrotation Xrotation Yrotation
        JOINT LeftToeBase
        {
          OFFSET 0 -4.84184 13
          CHANNELS 3 Zrotation Xrotation Yrotation
          End Site
          {
            OFFSET 0 1 6
          }
        }
      }
    }
  }
  JOINT RightUpLeg
  {
    OFFSET -9 -7.17245 0
    CHANNELS 3 Zrotation Xrotation Yrotation
    JOINT RightLeg
    {
      OFFSET 0 -44.0551 0
      CHANNELS 3 Zrotation Xrotation Yrotation
      JOINT RightFoot
      {
        OFFSET 0 -36.1469 0
        CHANNELS 3 Zrotation Xrotation Yrotation
        JOINT RightToeBase
        {
          OFFSET 0 -4.92256 13
          CHANNELS 3 Zrotation Xrotation Yrotation
          End Site
          {
            OFFSET 0 1 6
          }
        }
      }
    }
  }
}
MOTION
Frames:	21
Frame Time:	0.0333333
-232.311 66.0759 -233.28 6.69134 38.3721 -9.02186 0 0 0 12.8488 52.0014 -7.33989 -4.92596 -14.9713 1.14299 6.15272 -17.2106 0.279548 -9.04869 -18.3544 1.80823 -15.156 6.25411 -24.3891 -16.4313 -12.362 -70.7206 -4.44292 18.1213 4.82603 -2.52653 0.0237975 -1.07914 23.4712 9.91565 29.0144 -10.6789 -9.94088 40.1714 2.25057 14.3482 3.69952 -7.19179 -0.426324 6.7761 94.1474 -60.3707 144.106 180 87.0463 178.848 39.1175 -23.0437 8.28451 1.7671 -20.6685 -6.03894 -48.0752 -51.7695 -30.0759 7.52669e-007 86.9402 3.50093 -13.2126 -50.1588 -6.20491 5.98531 -28.2057 -13.2576 
-235.602 64.8412 -234.921 7.34645 40.1271 -5.58131 0 0 0 16.4439 54.4576 -9.64253 -6.43813 -18.088 0.78111 3.75307 -10.5153 0.148338 -10.0615 -25.7516 0.942849 -19.4251 7.35088 -24.3145 -15.9914 -12.7894 -68.0634 -2.39511 19.261 1.89414 -2.28911 -0.0365337 1.82846 24.7561 10.9622 30.9273 -12.7122 -13.869 33.5955 0.23382 10.3516 6.56219 -7.53603 -0.414863 6.29293 100.717 -62.2669 151.826 180 88.4318 -175.977 41.9421 -23.5539 9.13772 1.43239 -18.1372 -2.46342 -51.9534 -55.1263 -33.5403 180 85.0762 -177.502 -11.6168 -50.7842 -5.52877 6.35584 -30.4286 -13.2337 
-238.931 63.6115 -235.973 7.99691 40.6144 -2.53436 0 0 0 18.9863 58.2082 -11.6223 -7.38172 -21.365 0.463427 1.70659 -3.3045 -0.480653 -10.8969 -32.7676 -0.812619 -21.343 7.98385 -24.7444 -13.9624 -11.6883 -66.4159 -0.79319 20.6801 -2.53007 -1.05292 -0.0298178 3.24419 25.3087 11.3743 31.5869 -13.2642 -16.2136 28.8365 -0.617788 7.70062 7.68996 -6.07798 -0.209094 3.93693 104.634 -62.0384 155.166 180 88.2572 -178.864 39.7727 -20.4008 7.44796 1.43085 -17.4749 -2.81553 -53.5449 -57.0349 -33.7494 -180 78.7437 -176.992 -14.3106 -50.5935 -6.79101 6.99097 -34.56 -13.5484 
-241.874 62.5781 -236.41 8.64316 41.6545 -0.45603 0 0 0 20.3472 61.2474 -12.5113 -8.33732 -24.1866 0.674096 -0.434933 3.15812 -1.13739 -11.949 -38.7166 -3.06103 -22.9173 8.71917 -25.7431 -9.4098 -10.1022 -64.1322 -0.777527 12.3415 -6.19375 -0.723731 -0.0216671 3.42957 26.0716 11.2538 30.4911 -13.3373 -15.4495 26.0759 -0.225302 3.44439 8.94367 -5.60769 -0.380947 7.76644 106.415 -60.6021 157.108 180 87.4019 176.721 37.144 -18.8197 6.37417 1.734 -18.3814 -6.10286 -53.0584 -59.1753 -32.4004 180 74.1936 -178.845 -17.0281 -51.4048 -8.24255 7.3427 -37.5706 -14.244 
-244.438 61.657 -236.24 9.10836 43.0719 0.840014 0 0 0 22.0278 63.6644 -13.1257 -10.3049 -26.1796 1.48744 -1.27565 8.62728 -2.46231 -14.7259 -44.6845 -6.38067 -22.6991 9.16654 -27.3887 -9.21877 -9.62864 -63.4261 3.00918 16.0351 -13.191 -0.735338 -0.0303985 4.7344 27.0865 11.244 29.5156 -12.5451 -16.7976 22.5828 -0.550975 0.262424 12.7624 -13.2054 -0.82934 7.15563 105.352 -58.1466 158.769 -180 86.8585 173.018 37.047 -17.5015 5.90469 1.87863 -17.5818 -7.9163 -50.7155 -62.1488 -30.6068 -180 70.2672 175.14 -15.1515 -51.8204 -7.39342 7.58401 -39.183 -14.3514 
-246.602 60.9375 -235.869 8.62774 44.4192 2.90056 0 0 0 21.9506 64.4901 -12.5615 -10.3594 -25.605 2.58634 0.899369 13.371 -3.796 -20.4135 -49.5575 -9.48226 -20.2957 9.20806 -30.0024 -9.8195 -10.9148 -61.1209 5.66777 14.3636 -20.4289 0.21831 0.00244419 1.28291 28.0886 11.086 28.1928 -8.93634 -28.9215 17.6331 -4.85347 10.2679 25.4341 -10.8456 -0.545395 5.74048 105.491 -56.3954 160.411 -180 86.3346 169.48 36.2381 -15.5013 5.10009 1.3948 -17.051 -2.63355 -47.6862 -64.3952 -29.4427 180 67.3567 168.939 -16.323 -50.1565 -7.67928 7.27121 -42.3955 -17.37 
-248.096 60.5243 -235.438 6.34465 44.9079 6.13319 0 0 0 22.3825 64.3957 -12.1744 -8.78581 -23.1225 3.68273 2.87701 15.878 -4.34058 -23.7956 -50.3397 -10.333 -16.8865 8.7572 -32.4648 -14.2316 -15.0401 -60.4211 7.30661 16.213 -23.9886 0.8415 0.00969123 1.31963 28.5237 10.1064 25.1597 -6.86006 -32.7503 17.3012 -8.5393 12.4547 34.8463 -9.52863 -0.632788 7.58137 106.539 -55.5824 161.179 -180 86.2056 167.261 35.1709 -14.4188 4.59171 1.37744 -17.0505 -2.44476 -44.5767 -64.8273 -28.6171 -180 65.7627 168.235 -17.0845 -49.6374 -7.94722 7.20052 -43.7925 -18.2589 
-249.011 60.386 -234.807 4.06165 44.0507 8.60144 0 0 0 24.3403 64.5777 -12.888 -9.34695 -20.0595 4.71269 8.38799 15.1398 -5.51008 -27.7618 -48.9558 -9.55133 -13.9898 8.03542 -33.5902 -16.1592 -17.2119 -61.1824 8.53428 16.9963 -27.1745 0.755237 0.0110548 1.67719 28.1549 9.82337 24.6664 -10.8568 -29.7726 15.4581 -4.55352 7.08034 32.8732 -16.6903 -1.15259 7.84534 105.63 -54.97 159.38 -180 85.6182 165.306 35.7437 -13.5092 4.37419 1.3437 -17.3504 -1.901 -40.273 -63.6772 -26.6358 180 65.4539 168.892 -18.4843 -48.6689 -8.41745 7.52481 -46.5801 -18.3877 
-249.341 60.819 -234.087 2.25701 42.8521 9.94801 0 0 0 26.6962 65.0912 -14.1235 -11.147 -17.7821 5.58152 10.7972 12.5093 -5.03128 -28.6083 -46.5413 -7.37908 -10.5552 6.96808 -34.2132 -17.7368 -17.4788 -63.9955 8.20525 17.3281 -25.7023 1.59106 0.0208324 1.50021 26.9717 9.2371 23.9269 -9.77553 -30.1655 14.3098 -3.18404 4.94121 32.8564 -16.8552 -1.05854 7.13557 104.194 -54.9473 156.514 -180 85.6 165.027 36.6223 -14.0574 4.67295 1.47183 -17.7684 -3.13857 -36.0748 -61.7305 -24.1605 -180 66.3981 169.761 -16.0178 -50.3248 -7.56293 8.78097 -44.9858 -13.6917 
-249.088 61.6574 -233.24 0.169641 41.489 11.3729 0 0 0 30.013 65.3681 -16.0343 -12.8602 -15.9827 6.41679 8.98913 9.26741 -3.88129 -27.3186 -43.5126 -5.85754 -7.79188 6.01197 -34.2754 -17.0186 -16.0406 -66.9117 7.27568 16.713 -22.6212 1.73379 0.0373654 2.46902 26.6414 9.11905 23.842 -10.2011 -30.0187 14.044 -2.2833 4.13781 28.9244 -15.8853 -1.02594 7.34345 104.193 -55.7389 153.251 180 85.5253 165.267 35.8164 -14.5237 4.71594 1.45794 -17.8262 -2.94535 -31.524 -59.1596 -20.8929 180 68.9989 171.284 -15.3507 -50.4886 -7.27184 9.21694 -44.6559 -12.0923 
-248.313 63.0881 -232.27 -1.57557 39.8062 12.4094 0 0 0 32.8556 65.7683 -18.12 -14.4929 -14.5261 6.73663 7.45881 4.28067 -2.36634 -24.9331 -39.2939 -3.44613 -5.24746 5.03921 -33.6805 -13.0209 -14.0709 -70.2283 4.92193 15.0574 -16.3878 1.10242 0.0221246 2.29937 26.6667 9.49081 24.897 -11.9153 -25.9771 15.5269 -0.275675 -1.7082 18.8039 -16.074 -0.902371 6.38429 103.486 -57.7636 148.481 -180 86.1392 166.276 34.6805 -15.882 4.98778 1.93956 -16.1722 -8.52012 -27.0443 -55.5701 -17.9254 180 73.6975 170.09 -22.0734 -47.411 -9.78986 8.58209 -48.0196 -15.8843 
-247.232 64.641 -231.008 -3.93567 38.6196 13.9515 0 0 0 34.2059 65.507 -18.8025 -15.4573 -13.586 7.10636 5.74402 -0.760934 -0.869964 -22.6347 -34.6019 -1.22502 -3.27561 4.15343 -31.976 -8.12159 -13.4058 -74.8576 1.45134 18.8942 -8.96076 -2.27048 -0.0700837 3.53555 26.4679 9.91598 26.2872 -16.7341 -15.6188 18.0979 1.97922 -14.7789 4.35348 -10.7794 -0.799981 8.46389 103.747 -60.4168 144.42 -180 87.0933 168.424 34.6585 -17.6697 5.55317 1.80176 -17.3157 -7.05265 -22.5952 -51.9613 -13.834 -180 78.3217 172.41 -15.6001 -49.4699 -7.22193 9.4515 -44.463 -11.2084 
-245.617 66.5325 -229.443 -5.01855 37.4972 15.5953 0 0 0 36.5205 64.4557 -20.531 -17.0193 -12.2554 6.773 3.9418 -6.54585 0.522962 -20.0437 -29.3438 0.778235 -0.833984 3.0802 -29.1388 -3.34948 -14.4372 -80.0043 -3.41451 21.8347 -1.79065 -6.81003 -0.132409 2.22513 24.2521 9.55338 27.1518 -21.7172 -2.71208 21.3377 4.93364 -24.3967 -5.006 -3.4363 -0.0719321 2.39768 101.175 -64.8335 138.79 180 88.6446 170.826 34.5017 -19.8145 6.20887 1.82586 -20.4265 -7.07458 -21.4588 -47.1308 -13.2436 180 84.5053 172.505 -14.808 -48.8297 -6.75166 9.58291 -43.6403 -10.1984 
-243.794 68.4241 -227.384 -5.53111 36.8436 17.2664 0 0 0 35.7469 63.065 -20.2537 -17.6764 -11.0511 6.14789 3.11468 -12.2565 1.63479 -17.4122 -24.9886 2.35237 0.649102 2.43121 -26.6458 -5.15596 -17.4142 -84.0787 -6.32915 23.324 4.83496 -12.4229 0.255218 -2.34463 21.0591 8.95021 28.3053 -19.7149 2.78654 22.1616 7.03372 -26.0726 -5.04736 -4.85923 -0.191611 4.51359 95.7183 -69.1658 130.91 180 89.7412 169.403 32.4726 -22.1548 6.52632 1.69033 -17.7973 -5.69788 -21.3763 -41.516 -13.0969 1.07411e-005 88.382 -5.49366 -9.9126 -50.5109 -4.68532 9.26792 -39.1299 -7.596 
-241.863 70.0819 -224.766 -7.12566 36.8673 18.0472 0 0 0 29.5718 61.5061 -15.4269 -16.4958 -9.84404 6.49923 -0.124425 -19.4757 2.77155 -13.9902 -19.6324 3.45493 0.0318974 2.45914 -25.0967 -4.66832 -19.8652 -83.6189 -6.07414 21.8443 4.93478 -15.9736 0.668135 -4.75932 20.4604 8.69293 28.0453 -18.5967 0.358135 22.3972 6.90028 -7.83948 -4.59577 4.20898 0.0223926 0.60937 89.4609 -71.5123 121.798 0.000114519 89.8589 -14.2917 33.627 -25.2433 7.74191 1.70013 -18.8378 -5.55638 -19.4763 -36.9003 -10.9167 5.49931e-009 80.5979 -3.20576 -1.56468 -53.1768 -0.783174 8.36225 -31.17 -2.08447 
-239.243 71.9795 -221.519 -8.16393 37.7213 18.8335 0 0 0 24.2148 58.2095 -11.3309 -16.1062 -8.02509 6.46432 -3.55227 -26.7094 3.22926 -11.2294 -14.2265 4.00144 -0.871467 2.56141 -23.7708 -0.455807 -20.264 -80.8792 -7.03161 28.3282 5.20209 -16.1051 0.685984 -4.84593 17.35 7.66919 27.685 -16.1676 5.62451 22.2715 7.43399 -3.28321 -4.55846 15.812 0.102547 0.738437 78.3043 -74.2422 109.668 8.15549e-006 88.0585 -16.8134 38.2634 -26.1249 9.20326 1.87444 -17.311 -7.86754 -19.2974 -31.8951 -11.3481 -8.69323e-008 70.5173 1.26158 -5.90676 -48.2946 -2.64995 8.44604 -32.9278 -4.26985 
-236.094 73.9855 -217.622 -8.389 38.2313 20.5512 0 0 0 19.8307 53.6699 -9.03054 -15.3681 -5.2164 5.17761 -4.84316 -34.0488 4.01586 -8.33911 -8.53926 4.99532 -2.06407 2.4731 -20.2458 5.43621 -18.7151 -78.4664 -7.95379 27.2605 4.64563 -14.3107 0.754723 -6.00651 14.0251 6.39339 26.3282 -8.80943 6.43688 26.6232 7.88491 -5.33253 -4.56393 18.1393 -0.46881 -2.93622 53.5484 -76.6379 84.4319 -7.69857e-006 85.0663 -14.2101 39.5436 -28.6128 10.4753 1.87489 -19.1418 -7.87769 -20.1886 -25.633 -12.9193 3.73382e-008 60.2024 0.662256 -6.78537 -39.6116 -2.44615 10.165 -37.1531 -1.75908 
-232.721 75.9084 -212.974 -10.8216 38.2145 21.8152 0 0 0 15.1546 48.6474 -5.70043 -14.2406 -2.87305 4.68265 -2.52382 -39.3944 5.98216 -6.65243 -4.63613 6.71079 -3.1565 2.49906 -18.4801 12.7774 -14.2213 -72.3633 -4.52156 25.0457 -3.03499 -16.1636 0.883074 -6.21297 14.2914 5.86695 23.6617 0.727175 5.8796 29.2205 6.52393 4.36671 -4.26246 17.9985 -0.378537 -2.38986 34.6349 -74.2881 64.0893 -1.93792e-006 82.4536 -13.13 42.1196 -30.8473 12.1281 1.79453 -22.1616 -6.08706 -18.0935 -22.849 -11.1992 1.58762e-007 54.4638 2.86777 -10.7745 -23.1434 -2.2124 11.4029 -44.4509 -4.94694 
-229.702 77.9385 -207.809 -15.1866 38.5916 22.7192 0 0 0 10.1467 43.2041 -1.10342 -11.7441 -2.35765 5.71542 -1.27008 -40.2122 7.01084 -5.51245 -4.14495 7.34194 -3.90206 2.53103 -17.5485 12.7601 -8.57356 -67.8132 0.3469 21.4425 -11.478 -15.7182 0.927307 -6.71043 15.5356 6.13971 23.4868 8.58481 12.5951 25.4321 5.62984 3.09096 1.22113 19.6602 -0.370205 -2.13633 30.5308 -70.2701 56.7213 5.33067e-006 80.2751 -15.0354 39.1159 -35.1344 12.8342 1.75723 -19.375 -6.20661 -13.2777 -26.692 -4.60421 5.32797e-008 57.9336 3.50796 -14.0232 -7.85854 -0.968019 9.02328 -38.5261 -8.00418 
-226.1 79.5377 -202.117 -17.0476 37.4383 26.0133 0 0 0 8.73649 39.2709 -0.876575 -9.14359 -1.98843 3.9442 1.52563 -40.7196 8.96316 -4.07911 -2.922 8.58958 -4.84914 2.60084 -16.7212 15.4882 -4.10584 -65.3103 3.13809 18.9334 -16.5513 -15.2334 0.991368 -7.40333 19.7962 7.25165 23.6044 14.8361 19.3406 19.3467 5.11127 3.49105 5.54069 16.9923 -0.24178 -1.61842 15.9425 -64.9304 40.104 -7.22815e-007 76.2219 -14.8321 38.5214 -37.2396 13.4289 1.93387 -20.8046 -8.917 -11.7371 -30.1036 -1.74496 9.37947e-008 67.5846 10.7917 -23.5366 -1.18237 -0.246336 4.34264 -16.7545 -6.91125 
-223.044 80.2561 -196.699 -17.185 35.4269 29.2047 0 0 0 6.82074 35.8843 -1.44589 -7.33942 -0.12958 2.07942 6.58928 -42.4552 11.239 -4.27094 -1.23057 10.0678 -5.36537 2.63126 -16.2564 11.5528 -5.39981 -63.3923 11.355 24.3548 -25.8739 -15.4123 0.977845 -7.21706 24.4198 8.03791 22.3203 22.9886 22.2743 12.3607 3.06936 7.83772 9.48242 18.4868 0.128487 0.7895 7.08205 -57.8277 29.9758 3.61773e-007 73.1778 -14.7773 37.4037 -39.0246 13.6807 2.04959 -21.8686 -11.592 -10.0177 -34.6171 0.477983 -1.47424e-007 81.0971 8.03946 -30.4095 -9.72683 -2.64948 5.14016 -19.8774 -4.67755 
